<svg xmlns="http://www.w3.org/2000/svg" version="1.1" xmlns:xlink="http://www.w3.org/1999/xlink" xmlns:svgjs="http://svgjs.dev/svgjs" width="1500" height="1500" viewBox="0 0 1500 1500"><rect width="1500" height="1500" fill="#000000"></rect><g transform="matrix(0.6666666666666666,0,0,0.6666666666666666,249.39393939393938,438.58569500674776)"><svg viewBox="0 0 396 247" data-background-color="#ffffff" preserveAspectRatio="xMidYMid meet" height="935" width="1500" xmlns="http://www.w3.org/2000/svg" xmlns:xlink="http://www.w3.org/1999/xlink"><g id="tight-bounds" transform="matrix(1,0,0,1,0.2400000000000091,-0.09999999999999432)"><svg viewBox="0 0 395.52 247.2" height="247.2" width="395.52"><g><svg></svg></g><g><svg viewBox="0 0 395.52 247.2" height="247.2" width="395.52"><g transform="matrix(1,0,0,1,75.54432,89.43489239885535)"><svg viewBox="0 0 244.43135999999998 68.33021520228928" height="68.33021520228928" width="244.43135999999998"><g><svg viewBox="0 0 441.71479035334755 123.48033690471769" height="68.33021520228928" width="244.43135999999998"><g><rect width="7.413053170284975" height="123.48033690471769" x="263.8372583515313" y="0" fill="#ffffff" opacity="1" stroke-width="0" stroke="transparent" fill-opacity="1" class="rect-qz-0" data-fill-palette-color="primary" rx="1%" id="qz-0" data-palette-color="#c10000"></rect></g><g transform="matrix(1,0,0,1,0,0.3071650171759046)"><svg viewBox="0 0 244.43135999999996 122.86600687036588" height="122.86600687036588" width="244.43135999999996"><g id="textblocktransform"><svg viewBox="0 0 244.43135999999996 122.86600687036588" height="122.86600687036588" width="244.43135999999996" id="textblock"><g><svg viewBox="0 0 244.43135999999996 82.20191104361031" height="82.20191104361031" width="244.43135999999996"><g transform="matrix(1,0,0,1,0,0)"><svg width="244.43135999999996" viewBox="1.37 -37.35 112.50999999999999 37.84" height="82.20191104361031" data-palette-color="#c10000"><g class="wordmark-text-0" data-fill-palette-color="primary" id="text-0"><path d="M18.02-26.1L18.02-26.1Q18.68-24.63 18.68-23.14 18.68-21.66 18.54-20.68 18.41-19.7 18.14-18.8L18.14-18.8Q17.53-16.75 16.41-15.65L16.41-15.65Q15.65-19.43 14.76-20.56 13.87-21.68 12.98-22.07 12.08-22.46 11.08-22.46 10.08-22.46 9.45-22.27 8.81-22.07 8.35-21.7L8.35-21.7Q7.3-20.9 7.3-19.87 7.3-18.85 7.81-18.1 8.33-17.36 9.17-16.71 10.01-16.06 11.08-15.45L11.08-15.45 13.28-14.21Q16.11-12.62 17.16-11.57L17.16-11.57Q19.24-9.5 19.24-7.2L19.24-7.2Q19.24-4.2 17.19-2.15L17.19-2.15Q14.6 0.49 9.42 0.49L9.42 0.49Q4.71 0.49 2.34-1.71L2.34-1.71Q1.66-2.34 1.37-2.98L1.37-2.98Q1.56-4.81 3-6.42L3-6.42Q4.39-7.98 5.71-8.23L5.71-8.23Q5.62-7.91 5.62-7.28 5.62-6.64 5.98-5.7 6.35-4.76 7.03-3.96L7.03-3.96Q8.57-2.1 10.5-2.1 12.43-2.1 13.33-2.98 14.23-3.86 14.23-4.98 14.23-6.1 13.72-6.86 13.21-7.62 12.37-8.28 11.52-8.94 10.45-9.55L10.45-9.55 8.25-10.79Q5.44-12.45 4.39-13.62L4.39-13.62Q2.29-15.97 2.29-18.73L2.29-18.73Q2.29-21.63 4.74-23.44L4.74-23.44Q7.06-25.15 10.52-25.15L10.52-25.15 14.82-24.85Q16.38-24.85 16.99-25.23 17.6-25.61 18.02-26.1ZM31.88-34.42L31.88-34.42Q31.37-32.54 31.37-29.92 31.37-27.29 31.48-26.56 31.59-25.83 31.83-25.39L31.83-25.39Q32.3-24.66 33.64-24.66L33.64-24.66 40.18-24.66Q40.18-23.29 39.52-22.56L39.52-22.56Q38.33-21.24 36.59-21.24L36.59-21.24Q35.74-21.24 35.08-21.48L35.08-21.48Q33.88-21.97 33.23-21.97 32.57-21.97 32.15-21.72 31.74-21.46 31.49-20.97L31.49-20.97Q31.05-20.09 31.05-17.14 31.05-14.18 31.24-11.08 31.42-7.98 32.15-5.9 32.88-3.81 34.37-2.76 35.86-1.71 38.47-1.71L38.47-1.71Q38.47-0.95 37.45 0.1L37.45 0.1Q37.18 0.39 36.98 0.49L36.98 0.49Q32.66 0.49 30.52-0.54L30.52-0.54Q28.05-1.76 27-4.88L27-4.88Q25.95-8.06 25.95-14.28L25.95-14.28Q25.95-19.73 25.66-20.72 25.36-21.7 25.12-22.02L25.12-22.02Q24.83-22.39 23.7-22.92L23.7-22.92Q25.22-24.07 26.71-27.2L26.71-27.2 27.93-29.76Q29.22-32.69 30.14-33.56 31.05-34.42 31.88-34.42ZM53.54-22.71Q51.34-22.71 50.37-20.51 49.41-18.31 49.41-13.11L49.41-13.11Q49.41-1.95 53.54-1.95L53.54-1.95Q55.73-1.95 56.7-4.93 57.66-7.91 57.66-13.11 57.66-18.31 56.7-20.51 55.73-22.71 53.54-22.71L53.54-22.71ZM43.26-14.04Q43.26-25.15 53.54-25.15 63.81-25.15 63.81-14.04L63.81-14.04Q63.81-7.3 60.98-3.37L60.98-3.37Q58.22 0.49 53.54 0.49 48.85 0.49 46.09-3.37L46.09-3.37Q43.26-7.3 43.26-14.04L43.26-14.04ZM85.59-26.12L85.59-26.12Q86.2-24.66 86.2-22.91 86.2-21.17 86.08-20.02 85.95-18.87 85.71-17.8L85.71-17.8Q85.2-15.53 84.12-14.16L84.12-14.16Q83.05-20.8 80.63-22.22L80.63-22.22Q79.78-22.71 78.79-22.71 77.8-22.71 77.07-22.24 76.34-21.78 75.82-20.9L75.82-20.9Q74.77-19.14 74.77-16.35 74.77-13.55 75.33-11.54 75.9-9.52 76.81-7.92 77.73-6.32 78.89-5.16 80.05-4 81.22-3.22L81.22-3.22Q83.59-1.71 85.42-1.71L85.42-1.71Q85.32-1.07 84.78-0.46 84.25 0.15 83.61 0.49L83.61 0.49Q81.02 0.49 77.68-1.27L77.68-1.27Q71.45-4.57 69.28-10.89L69.28-10.89Q68.47-13.21 68.47-15.64 68.47-18.07 69.04-19.74 69.6-21.41 70.67-22.61L70.67-22.61Q72.87-25.15 76.77-25.15L76.77-25.15Q78.09-25.15 79.34-24.98L79.34-24.98Q81.68-24.66 82.62-24.66 83.56-24.66 84.29-24.91 85.03-25.17 85.59-26.12ZM97.35-12.16L97.35-10.35Q97.35-3.27 98.31 0L98.31 0 91.1 0Q91.79-2.37 91.96-5.59L91.96-5.59Q92.32-13.38 92.32-17.68 92.32-21.97 92.3-23.45 92.28-24.93 92.25-26.42L92.25-26.42Q92.1-31.67 91.75-33.09 91.4-34.52 91.08-35.16L91.08-35.16Q90.62-36.18 89.59-37.35L89.59-37.35 98.5-37.35Q97.82-34.89 97.7-32.69L97.7-32.69 97.52-29.15Q97.35-25.12 97.35-23.02 97.35-20.92 97.39-20.19 97.43-19.46 97.57-18.99L97.57-18.99Q97.87-18.02 99.05-18.07 100.23-18.12 101.19-18.57 102.14-19.02 102.75-19.73L102.75-19.73Q103.97-21.09 103.97-22.63 103.97-24.17 103.6-24.66L103.6-24.66 110.66-24.66Q110.37-24.07 110.13-23.47 109.9-22.88 109.63-22.27L109.63-22.27Q107.9-18.41 104.16-16.67L104.16-16.67Q104.41-11.62 107.49-6.54L107.49-6.54Q110.39-1.83 113.88 0L113.88 0 105.7 0Q103.26-1.17 101.75-7.86L101.75-7.86Q101.24-10.13 101.06-12.23 100.89-14.33 100.53-14.98 100.16-15.63 99.21-15.63L99.21-15.63Q97.35-15.63 97.35-12.16L97.35-12.16Z" fill="#ffffff" data-fill-palette-color="primary"></path></g></svg></g></svg></g><g transform="matrix(1,0,0,1,100.925708544,101.60780939514166)"><svg viewBox="0 0 143.50565145599995 21.25819747522423" height="21.25819747522423" width="143.50565145599995"><g transform="matrix(1,0,0,1,0,0)"><svg width="143.50565145599995" viewBox="1.49 -38.11 341.62 50.61" height="21.25819747522423" data-palette-color="#003c3b"><path d="M10.5-2.76L14.5-1 14.5 0 1.49 0 1.49-1 6.01-2.76 6.01-33.59 1.49-35.35 1.49-36.35 10.01-38.11 10.5-37.6 10.5-13.65 12.7-14.16 20-22.75 16.8-24 16.8-25 27.44-25 27.44-24 23.24-22.34 16.09-13.94 24.61-2.71 24.61-2.76 28.86-1 28.86 0 21.41 0 12.26-11.79 10.5-11.79 10.5-2.76ZM52.9-13.06L52.19-12.35 36.4-12.35Q36.42-9.62 37.18-7.59 37.94-5.57 39.23-4.42 40.52-3.27 42.08-2.73 43.63-2.2 45.46-2.2L45.46-2.2Q48-2.2 50.9-3.91L50.9-3.91 51.66-2.44Q49.61-0.63 47.56-0.01 45.51 0.61 42.89 0.61L42.89 0.61Q40.62 0.61 38.52-0.35 36.42-1.32 34.84-3.02 33.25-4.71 32.3-7.18 31.35-9.64 31.35-12.5L31.35-12.5Q31.35-15.21 32.04-17.44 32.74-19.68 33.88-21.17 35.03-22.66 36.56-23.68 38.08-24.71 39.68-25.16 41.28-25.61 42.94-25.61L42.94-25.61Q45.02-25.61 46.79-24.84 48.56-24.07 49.94-22.57 51.32-21.07 52.11-18.63 52.9-16.19 52.9-13.06L52.9-13.06ZM43.04-23.24L43.04-23.24Q40.23-23.24 38.56-21.02 36.89-18.8 36.5-14.94L36.5-14.94 48.14-14.94Q48.14-18.85 46.82-21.04 45.51-23.24 43.04-23.24ZM78.71-13.06L78-12.35 62.2-12.35Q62.23-9.62 62.98-7.59 63.74-5.57 65.03-4.42 66.33-3.27 67.88-2.73 69.43-2.2 71.26-2.2L71.26-2.2Q73.8-2.2 76.7-3.91L76.7-3.91 77.46-2.44Q75.41-0.63 73.36-0.01 71.31 0.61 68.7 0.61L68.7 0.61Q66.43 0.61 64.33-0.35 62.23-1.32 60.64-3.02 59.05-4.71 58.1-7.18 57.15-9.64 57.15-12.5L57.15-12.5Q57.15-15.21 57.84-17.44 58.54-19.68 59.69-21.17 60.83-22.66 62.36-23.68 63.89-24.71 65.49-25.16 67.08-25.61 68.75-25.61L68.75-25.61Q70.82-25.61 72.59-24.84 74.36-24.07 75.74-22.57 77.12-21.07 77.91-18.63 78.71-16.19 78.71-13.06L78.71-13.06ZM68.84-23.24L68.84-23.24Q66.04-23.24 64.36-21.02 62.69-18.8 62.3-14.94L62.3-14.94 73.95-14.94Q73.95-18.85 72.63-21.04 71.31-23.24 68.84-23.24ZM89.96 9.74L95.45 11.5 95.45 12.5 80.95 12.5 80.95 11.5 85.47 9.74 85.47-21.09 80.95-22.85 80.95-23.85 89.45-25.61 89.96-25.1 89.96-22.61Q91.33-24.29 92.89-24.95 94.45-25.61 96.55-25.61L96.55-25.61Q98.58-25.61 100.49-24.69 102.41-23.78 103.91-22.13 105.41-20.48 106.33-17.97 107.24-15.45 107.24-12.5L107.24-12.5Q107.24-9.16 106.22-6.57 105.19-3.98 103.47-2.45 101.75-0.93 99.68-0.16 97.6 0.61 95.31 0.61L95.31 0.61Q92.4 0.61 89.96-0.44L89.96-0.44 89.96 9.74ZM95.5-23.1L95.5-23.1Q93.96-23.1 92.47-22.39 90.98-21.68 89.96-20.41L89.96-20.41 89.96-4.91Q90.67-3.52 92.12-2.71 93.57-1.9 95.31-1.9L95.31-1.9Q96.35-1.9 97.31-2.25 98.26-2.59 99.16-3.39 100.07-4.2 100.72-5.4 101.38-6.59 101.77-8.41 102.17-10.23 102.17-12.5L102.17-12.5Q102.17-17.24 100.41-20.17 98.65-23.1 95.5-23.1ZM144.25-23.1L136.24-21.61 136.24-8.01Q136.24-6.35 136.5-5.22 136.76-4.1 137.26-3.55 137.76-3 138.32-2.8 138.88-2.59 139.66-2.59L139.66-2.59Q141.13-2.59 142.11-2.84 143.1-3.1 144.25-3.81L144.25-3.81 145.01-2.25Q141.56 0.61 137.46 0.61L137.46 0.61Q135.07 0.61 133.41-1.28 131.75-3.17 131.75-6.59L131.75-6.59 131.75-21.61 127.21-22.85 127.21-23.85 131.95-24.85 133.75-31.59 136.24-31.59 136.24-24.85 143.4-24.85 144.25-24.56 144.25-23.1ZM157.36-2.76L161.61-1 161.61 0 148.35 0 148.35-1 152.87-2.76 152.87-33.59 148.35-35.35 148.35-36.35 156.87-38.11 157.36-37.6 157.36-22.14Q159.07-23.75 161.39-24.68 163.71-25.61 165.95-25.61L165.95-25.61Q169.25-25.61 171.41-23.61 173.57-21.61 173.57-17.65L173.57-17.65 173.57-2.76 178.06-1 178.06 0 164.8 0 164.8-1 169.05-2.76 169.05-16.16Q169.05-19.68 167.81-21.04 166.56-22.41 163.51-22.41L163.51-22.41Q159.87-22.41 157.36-20.24L157.36-20.24 157.36-2.76ZM202.62-13.06L201.91-12.35 186.12-12.35Q186.14-9.62 186.9-7.59 187.65-5.57 188.95-4.42 190.24-3.27 191.79-2.73 193.34-2.2 195.17-2.2L195.17-2.2Q197.71-2.2 200.62-3.91L200.62-3.91 201.37-2.44Q199.32-0.63 197.27-0.01 195.22 0.61 192.61 0.61L192.61 0.61Q190.34 0.61 188.24-0.35 186.14-1.32 184.55-3.02 182.97-4.71 182.01-7.18 181.06-9.64 181.06-12.5L181.06-12.5Q181.06-15.21 181.76-17.44 182.45-19.68 183.6-21.17 184.75-22.66 186.27-23.68 187.8-24.71 189.4-25.16 191-25.61 192.66-25.61L192.66-25.61Q194.73-25.61 196.5-24.84 198.27-24.07 199.65-22.57 201.03-21.07 201.83-18.63 202.62-16.19 202.62-13.06L202.62-13.06ZM192.76-23.24L192.76-23.24Q189.95-23.24 188.28-21.02 186.6-18.8 186.21-14.94L186.21-14.94 197.86-14.94Q197.86-18.85 196.54-21.04 195.22-23.24 192.76-23.24ZM239.36-23.1L231.35-21.61 231.35-8.01Q231.35-6.35 231.61-5.22 231.86-4.1 232.36-3.55 232.86-3 233.42-2.8 233.99-2.59 234.77-2.59L234.77-2.59Q236.23-2.59 237.22-2.84 238.21-3.1 239.36-3.81L239.36-3.81 240.11-2.25Q236.67 0.61 232.57 0.61L232.57 0.61Q230.18 0.61 228.52-1.28 226.86-3.17 226.86-6.59L226.86-6.59 226.86-21.61 222.32-22.85 222.32-23.85 227.05-24.85 228.86-31.59 231.35-31.59 231.35-24.85 238.5-24.85 239.36-24.56 239.36-23.1ZM252.71-2.76L258.47-1 258.47 0 243.73 0 243.73-1 248.22-2.76 248.22-21.09 243.73-22.85 243.73-23.85 252.22-25.61 252.71-25.1 252.71-22.09Q256.42-25.61 262.48-25.61L262.48-25.61 262.48-20.19 261.47-19.85 257.91-21.8Q256.81-21.8 255.39-21.33 253.98-20.85 252.71-19.95L252.71-19.95 252.71-2.76ZM284.45-3.39L288.96-2.15 288.96-1.25 283.66 0.39Q282.1 0.73 281.03 0.04 279.95-0.66 279.95-2.34L279.95-2.34Q276.78 0.61 272.51 0.61L272.51 0.61Q268.97 0.61 267.21-1.22 265.45-3.05 265.45-5.81L265.45-5.81Q265.45-7.89 266.38-9.48 267.31-11.08 268.75-12.04 270.19-12.99 272.19-13.62 274.19-14.26 276.05-14.5 277.9-14.75 279.95-14.79L279.95-14.79 279.95-17.14Q279.95-20.56 278.88-21.9 277.8-23.24 275.31-23.24L275.31-23.24Q273.43-23.24 270.9-22.66L270.9-22.66 268.31-16.99 267.11-16.99 267.11-23.95Q269.31-24.73 271.75-25.17 274.19-25.61 276.05-25.61L276.05-25.61Q280.08-25.61 282.26-23.99 284.45-22.36 284.45-18.65L284.45-18.65 284.45-3.39ZM274.56-2.25L274.56-2.25Q275.95-2.25 277.41-2.92 278.88-3.59 279.95-4.76L279.95-4.76 279.95-12.79Q275.07-12.57 272.51-10.8 269.94-9.03 269.94-6.3L269.94-6.3Q269.94-4.2 271.29-3.22 272.63-2.25 274.56-2.25ZM303.49 0.61L303.49 0.61Q301.19 0.61 299.1-0.33 297.02-1.27 295.43-2.94 293.84-4.61 292.89-7.1 291.94-9.59 291.94-12.5L291.94-12.5Q291.94-15.65 292.89-18.19 293.84-20.73 295.51-22.34 297.19-23.95 299.36-24.8 301.53-25.66 304.05-25.66L304.05-25.66Q307.64-25.66 311.1-24.05L311.1-24.05 311.1-16.5 310.1-16.5 307.39-23.05Q305.93-23.39 304.49-23.39L304.49-23.39Q300.65-23.39 298.82-20.56 296.99-17.72 296.99-12.5L296.99-12.5Q296.99-7.52 299.41-4.86 301.83-2.2 306.05-2.2L306.05-2.2Q307.49-2.2 308.65-2.58 309.81-2.95 311.49-3.91L311.49-3.91 312.25-2.34Q310.08-0.63 308.05-0.01 306.02 0.61 303.49 0.61ZM324.75-2.76L328.75-1 328.75 0 315.74 0 315.74-1 320.26-2.76 320.26-33.59 315.74-35.35 315.74-36.35 324.26-38.11 324.75-37.6 324.75-13.65 326.95-14.16 334.24-22.75 331.05-24 331.05-25 341.69-25 341.69-24 337.49-22.34 330.34-13.94 338.86-2.71 338.86-2.76 343.11-1 343.11 0 335.66 0 326.51-11.79 324.75-11.79 324.75-2.76Z" opacity="1" transform="matrix(1,0,0,1,0,0)" fill="#ffffff" class="slogan-text-1" data-fill-palette-color="secondary" id="text-1"></path></svg></g></svg></g></svg></g></svg></g><g transform="matrix(1,0,0,1,290.6562098733476,11.733386970550413)"><svg viewBox="0 0 151.05858047999996 100.01356296361686" height="100.01356296361686" width="151.05858047999996"><g><svg xmlns="http://www.w3.org/2000/svg" xmlns:xlink="http://www.w3.org/1999/xlink" version="1.1" x="0" y="0" viewBox="2.5020000000000024 18.5 95.154 63" enable-background="new 0 0 100 100" xml:space="preserve" height="100.01356296361686" width="151.05858047999996" class="icon-icon-0" data-fill-palette-color="accent" id="icon-0"><path fill="#ffffff" d="M76.941 40.071c-1.94 0-3.812 0.288-5.594 0.789l-4.762-8.36H71.5c0.171 0 0.333-0.034 0.5-0.05 0.167 0.017 0.329 0.05 0.5 0.05h7c2.762 0 5-2.239 5-5v-4c0-2.761-2.238-5-5-5h-7c-2.419 0-4.436 1.718-4.899 4H16.5c-2.761 0-5 2.239-5 5s2.239 5 5 5h17.625l-5.105 8.414c-1.844-0.54-3.788-0.843-5.804-0.843-11.422 0-20.714 9.292-20.714 20.714S11.793 81.5 23.215 81.5c11.422 0 20.715-9.293 20.715-20.715 0-5.81-2.412-11.059-6.276-14.824L45.821 32.5h9.257l7.584 13.317c-3.955 3.774-6.435 9.083-6.435 14.968 0 11.422 9.292 20.715 20.714 20.715s20.715-9.293 20.715-20.715S88.363 40.071 76.941 40.071zM33.93 60.785c0 5.908-4.807 10.715-10.715 10.715-5.908 0-10.714-4.807-10.714-10.715 0-5.907 4.806-10.714 10.714-10.714 0.081 0 0.16 0.01 0.24 0.012l-4.919 8.108c-1.433 2.36-0.68 5.436 1.681 6.868 0.811 0.492 1.706 0.727 2.589 0.727 1.69 0 3.339-0.857 4.279-2.407l5.109-8.421C33.288 56.638 33.93 58.637 33.93 60.785zM76.941 71.5c-5.907 0-10.714-4.807-10.714-10.715 0-2.115 0.624-4.084 1.687-5.747l4.683 8.222c0.922 1.618 2.611 2.526 4.35 2.526 0.839 0 1.688-0.212 2.47-0.656 2.399-1.366 3.236-4.42 1.87-6.819l-4.683-8.222c0.113-0.003 0.224-0.017 0.338-0.017 5.908 0 10.715 4.807 10.715 10.714C87.656 66.693 82.85 71.5 76.941 71.5z" data-fill-palette-color="accent"></path></svg></g></svg></g></svg></g></svg></g><g><path d="M245.816 0c68.262 0 123.6 55.338 123.6 123.6 0 68.262-55.338 123.6-123.6 123.6-54.437 0-100.654-35.192-117.143-84.066h2.168c16.406 47.721 61.685 82.014 114.975 82.015 67.13 0 121.549-54.419 121.549-121.549 0-67.13-54.419-121.549-121.549-121.549-53.289 0-98.569 34.293-114.975 82.015l-2.168 0c16.488-48.874 62.706-84.066 117.143-84.066z" fill="#ffffff" stroke="transparent" data-fill-palette-color="tertiary"></path></g></svg></g><defs></defs></svg><rect width="395.52" height="247.2" fill="none" stroke="none" visibility="hidden"></rect></g></svg></g></svg>